<svg xmlns="http://www.w3.org/2000/svg" viewBox="0 0 512 512">
  <path fill="#E10600" d="M120 32h272c48.6 0 88 39.4 88 88v272c0 48.6-39.4 88-88 88H120c-48.6 0-88-39.4-88-88V120c0-48.6 39.4-88 88-88zm0 64c-13.3 0-24 10.7-24 24v272c0 13.3 10.7 24 24 24h272c13.3 0 24-10.7 24-24V120c0-13.3-10.7-24-24-24H120z"/>
  <path fill="#fff" d="M180 352h152c13.3 0 24-10.7 24-24v-32c0-13.3-10.7-24-24-24h-104v-32h104c13.3 0 24-10.7 24-24v-32c0-13.3-10.7-24-24-24H180c-13.3 0-24 10.7-24 24v144c0 13.3 10.7 24 24 24z"/>
</svg>