<?xml version="1.0" encoding="UTF-8"?>
<!-- SCORE STORE — SVG Sprite (verde) -->
<svg xmlns="http://www.w3.org/2000/svg" style="display:none" viewBox="0 0 24 24">
  <defs>
    <style>
      .s{fill:none;stroke:#00C853;stroke-width:2;stroke-linecap:round;stroke-linejoin:round}
      .f{fill:#00C853}
    </style>
  </defs>

  <!-- Cart -->
  <symbol id="icon-cart" viewBox="0 0 24 24">
    <path class="s" d="M6 6h15l-1.5 8.5a2 2 0 0 1-2 1.6H8.2a2 2 0 0 1-2-1.6L4 3H2"/>
    <circle class="s" cx="9" cy="20" r="1.5"/>
    <circle class="s" cx="18" cy="20" r="1.5"/>
  </symbol>

  <!-- Truck (racing lines) -->
  <symbol id="icon-truck" viewBox="0 0 24 24">
    <path class="s" d="M3 7h11v9H3z"/>
    <path class="s" d="M14 10h4l3 3v3h-7z"/>
    <circle class="s" cx="7" cy="18" r="1.5"/>
    <circle class="s" cx="18" cy="18" r="1.5"/>
    <path class="s" d="M2 10h2M1 13h3M2 16h2"/>
  </symbol>

  <!-- Check -->
  <symbol id="icon-check" viewBox="0 0 24 24">
    <path class="s" d="M20 6 9 17l-5-5"/>
  </symbol>

  <!-- Tag -->
  <symbol id="icon-tag" viewBox="0 0 24 24">
    <path class="s" d="M20 13l-7 7-10-10V3h7z"/>
    <circle class="s" cx="7.5" cy="7.5" r="1"/>
  </symbol>

  <!-- Pin -->
  <symbol id="icon-pin" viewBox="0 0 24 24">
    <path class="s" d="M12 21s7-4.5 7-11a7 7 0 0 0-14 0c0 6.5 7 11 7 11z"/>
    <circle class="s" cx="12" cy="10" r="2.5"/>
  </symbol>

  <!-- Shield -->
  <symbol id="icon-shield" viewBox="0 0 24 24">
    <path class="s" d="M12 2l8 4v6c0 5-3.5 9-8 10-4.5-1-8-5-8-10V6z"/>
    <path class="s" d="M9 12l2 2 4-5"/>
  </symbol>

  <!-- Card -->
  <symbol id="icon-card" viewBox="0 0 24 24">
    <rect class="s" x="3" y="5" width="18" height="14" rx="2"/>
    <path class="s" d="M3 10h18"/>
    <path class="s" d="M7 15h4"/>
  </symbol>

  <!-- Bolt (speed) -->
  <symbol id="icon-bolt" viewBox="0 0 24 24">
    <path class="s" d="M13 2 4 14h7l-1 8 10-14h-7z"/>
  </symbol>
</svg>